<svg width="210" height="60" viewBox="0 0 210 60" fill="none" xmlns="http://www.w3.org/2000/svg">
<mask id="path-1-outside-1_168_1180" maskUnits="userSpaceOnUse" x="43" y="20" width="167" height="19" fill="black">
<rect fill="white" x="43" y="20" width="167" height="19"/>
<path d="M43.6529 21.104H47.1089L49.9649 33.632C50.0609 34.112 50.1329 34.784 50.1809 35.648C50.1809 35.864 50.2769 35.96 50.4689 35.96C50.6609 35.96 50.7569 35.864 50.7569 35.648C50.7569 34.928 50.8049 34.256 50.9249 33.632L53.2529 21.104H57.0929L59.4209 33.632C59.5169 34.256 59.5889 34.928 59.5889 35.648C59.5889 35.864 59.6849 35.96 59.8769 35.96C60.0689 35.96 60.1649 35.864 60.1649 35.648C60.1649 34.952 60.2369 34.28 60.3809 33.632L63.2369 21.104H66.6929L62.4689 38H57.4769L55.6049 27.08C55.5089 26.576 55.4609 25.904 55.4609 25.04C55.4609 24.824 55.3649 24.704 55.1729 24.704C54.9809 24.704 54.8849 24.824 54.8849 25.04C54.8849 25.904 54.8369 26.576 54.7409 27.08L52.8689 38H47.8769L43.6529 21.104ZM79.748 21.104V23.984H71.108V28.208H78.212V30.896H71.108V35.12H79.748V38H67.844V21.104H79.748ZM82.0471 38V21.104H85.3111V35.12H93.5671V38H82.0471ZM95.3178 25.16C95.9898 23.864 96.9498 22.832 98.1978 22.064C99.4458 21.296 100.958 20.912 102.686 20.912C104.318 20.912 105.71 21.248 106.862 21.92C108.014 22.592 108.878 23.408 109.454 24.416C110.03 25.424 110.366 26.432 110.462 27.44H107.222C107.126 26.864 106.91 26.288 106.574 25.712C106.214 25.16 105.71 24.704 105.062 24.344C104.414 23.984 103.646 23.792 102.734 23.792C101.678 23.792 100.742 24.056 99.9738 24.56C99.2058 25.088 98.6058 25.784 98.1978 26.648C97.7898 27.512 97.5978 28.496 97.5978 29.552C97.5978 30.632 97.7898 31.616 98.1978 32.48C98.6058 33.344 99.2058 34.04 99.9738 34.544C100.742 35.072 101.678 35.312 102.734 35.312C103.646 35.312 104.414 35.144 105.062 34.784C105.71 34.424 106.214 33.968 106.574 33.392C106.91 32.84 107.126 32.264 107.222 31.664H110.462C110.366 32.696 110.03 33.704 109.454 34.712C108.878 35.72 108.014 36.536 106.862 37.208C105.71 37.88 104.318 38.192 102.686 38.192C100.958 38.192 99.4458 37.832 98.1978 37.064C96.9498 36.296 95.9898 35.264 95.3178 33.944C94.6458 32.648 94.3338 31.184 94.3338 29.552C94.3338 27.944 94.6458 26.48 95.3178 25.16ZM124.543 22.064C125.815 22.832 126.799 23.888 127.471 25.184C128.143 26.504 128.503 27.968 128.503 29.552C128.503 31.16 128.143 32.624 127.471 33.92C126.799 35.24 125.815 36.272 124.543 37.04C123.247 37.808 121.759 38.192 120.055 38.192C118.327 38.192 116.839 37.808 115.567 37.04C114.271 36.272 113.287 35.24 112.615 33.92C111.943 32.624 111.607 31.16 111.607 29.552C111.607 27.968 111.943 26.504 112.615 25.184C113.287 23.888 114.271 22.832 115.567 22.064C116.839 21.296 118.327 20.912 120.055 20.912C121.759 20.912 123.247 21.296 124.543 22.064ZM122.815 34.544C123.583 34.04 124.183 33.344 124.615 32.48C125.023 31.616 125.239 30.632 125.239 29.552C125.239 28.496 125.023 27.512 124.615 26.648C124.183 25.784 123.583 25.088 122.815 24.56C122.023 24.056 121.111 23.792 120.055 23.792C118.999 23.792 118.063 24.056 117.295 24.56C116.503 25.088 115.903 25.784 115.495 26.648C115.063 27.512 114.871 28.496 114.871 29.552C114.871 30.632 115.063 31.616 115.495 32.48C115.903 33.344 116.503 34.04 117.295 34.544C118.063 35.072 118.999 35.312 120.055 35.312C121.111 35.312 122.023 35.072 122.815 34.544ZM130.235 38V21.104H135.899L139.403 33.872C139.499 34.232 139.547 34.784 139.547 35.504C139.547 35.696 139.643 35.792 139.835 35.792C140.027 35.792 140.123 35.696 140.123 35.504C140.123 34.784 140.171 34.232 140.267 33.872L143.771 21.104H149.435V38H146.171V25.352C146.171 25.016 146.195 24.68 146.267 24.392C146.315 24.104 146.435 23.768 146.579 23.336C146.579 23.312 146.603 23.264 146.603 23.192C146.603 23.048 146.507 22.952 146.363 22.928H146.315C146.195 22.928 146.123 23 146.075 23.144L141.851 38H137.819L133.595 23.144C133.547 23 133.451 22.928 133.355 22.928C133.091 22.928 132.995 23.072 133.091 23.336C133.235 23.768 133.331 24.104 133.403 24.392C133.451 24.68 133.499 25.016 133.499 25.352V38H130.235ZM158.989 21.104C161.221 21.104 162.877 21.608 163.957 22.616C165.013 23.624 165.565 24.92 165.565 26.48C165.565 27.464 165.301 28.352 164.821 29.168C164.341 29.984 163.621 30.656 162.685 31.136C161.749 31.616 160.645 31.856 159.373 31.856H155.389V38H152.125V21.104H158.989ZM159.349 29.168C160.237 29.168 160.957 28.928 161.485 28.448C162.013 27.968 162.301 27.344 162.301 26.576C162.301 25.76 162.037 25.136 161.509 24.68C160.981 24.224 160.261 23.984 159.349 23.984H155.389V29.168H159.349ZM167.102 38V21.104H170.366V35.12H178.622V38H167.102ZM196.665 38H193.017L191.721 34.16H184.713L183.417 38H179.769L185.913 21.104H190.521L196.665 38ZM185.601 31.472H190.833L188.889 25.688C188.649 24.968 188.529 24.176 188.505 23.288C188.505 23.072 188.409 22.952 188.217 22.952C188.025 22.952 187.929 23.072 187.929 23.288C187.881 24.176 187.761 24.968 187.545 25.688L185.601 31.472ZM193.995 21.104H197.452L201.34 27.68C201.46 27.92 201.532 28.256 201.58 28.736C201.58 28.976 201.676 29.072 201.868 29.072C202.06 29.072 202.156 28.976 202.156 28.736C202.18 28.256 202.252 27.92 202.396 27.68L206.284 21.104H209.74L203.5 31.376V38H200.236V31.376L193.995 21.104Z"/>
</mask>
<path d="M43.6529 21.104H47.1089L49.9649 33.632C50.0609 34.112 50.1329 34.784 50.1809 35.648C50.1809 35.864 50.2769 35.96 50.4689 35.96C50.6609 35.96 50.7569 35.864 50.7569 35.648C50.7569 34.928 50.8049 34.256 50.9249 33.632L53.2529 21.104H57.0929L59.4209 33.632C59.5169 34.256 59.5889 34.928 59.5889 35.648C59.5889 35.864 59.6849 35.96 59.8769 35.96C60.0689 35.96 60.1649 35.864 60.1649 35.648C60.1649 34.952 60.2369 34.28 60.3809 33.632L63.2369 21.104H66.6929L62.4689 38H57.4769L55.6049 27.08C55.5089 26.576 55.4609 25.904 55.4609 25.04C55.4609 24.824 55.3649 24.704 55.1729 24.704C54.9809 24.704 54.8849 24.824 54.8849 25.04C54.8849 25.904 54.8369 26.576 54.7409 27.08L52.8689 38H47.8769L43.6529 21.104ZM79.748 21.104V23.984H71.108V28.208H78.212V30.896H71.108V35.12H79.748V38H67.844V21.104H79.748ZM82.0471 38V21.104H85.3111V35.12H93.5671V38H82.0471ZM95.3178 25.16C95.9898 23.864 96.9498 22.832 98.1978 22.064C99.4458 21.296 100.958 20.912 102.686 20.912C104.318 20.912 105.71 21.248 106.862 21.92C108.014 22.592 108.878 23.408 109.454 24.416C110.03 25.424 110.366 26.432 110.462 27.44H107.222C107.126 26.864 106.91 26.288 106.574 25.712C106.214 25.16 105.71 24.704 105.062 24.344C104.414 23.984 103.646 23.792 102.734 23.792C101.678 23.792 100.742 24.056 99.9738 24.56C99.2058 25.088 98.6058 25.784 98.1978 26.648C97.7898 27.512 97.5978 28.496 97.5978 29.552C97.5978 30.632 97.7898 31.616 98.1978 32.48C98.6058 33.344 99.2058 34.04 99.9738 34.544C100.742 35.072 101.678 35.312 102.734 35.312C103.646 35.312 104.414 35.144 105.062 34.784C105.71 34.424 106.214 33.968 106.574 33.392C106.91 32.84 107.126 32.264 107.222 31.664H110.462C110.366 32.696 110.03 33.704 109.454 34.712C108.878 35.72 108.014 36.536 106.862 37.208C105.71 37.88 104.318 38.192 102.686 38.192C100.958 38.192 99.4458 37.832 98.1978 37.064C96.9498 36.296 95.9898 35.264 95.3178 33.944C94.6458 32.648 94.3338 31.184 94.3338 29.552C94.3338 27.944 94.6458 26.48 95.3178 25.16ZM124.543 22.064C125.815 22.832 126.799 23.888 127.471 25.184C128.143 26.504 128.503 27.968 128.503 29.552C128.503 31.16 128.143 32.624 127.471 33.92C126.799 35.24 125.815 36.272 124.543 37.04C123.247 37.808 121.759 38.192 120.055 38.192C118.327 38.192 116.839 37.808 115.567 37.04C114.271 36.272 113.287 35.24 112.615 33.92C111.943 32.624 111.607 31.16 111.607 29.552C111.607 27.968 111.943 26.504 112.615 25.184C113.287 23.888 114.271 22.832 115.567 22.064C116.839 21.296 118.327 20.912 120.055 20.912C121.759 20.912 123.247 21.296 124.543 22.064ZM122.815 34.544C123.583 34.04 124.183 33.344 124.615 32.48C125.023 31.616 125.239 30.632 125.239 29.552C125.239 28.496 125.023 27.512 124.615 26.648C124.183 25.784 123.583 25.088 122.815 24.56C122.023 24.056 121.111 23.792 120.055 23.792C118.999 23.792 118.063 24.056 117.295 24.56C116.503 25.088 115.903 25.784 115.495 26.648C115.063 27.512 114.871 28.496 114.871 29.552C114.871 30.632 115.063 31.616 115.495 32.48C115.903 33.344 116.503 34.04 117.295 34.544C118.063 35.072 118.999 35.312 120.055 35.312C121.111 35.312 122.023 35.072 122.815 34.544ZM130.235 38V21.104H135.899L139.403 33.872C139.499 34.232 139.547 34.784 139.547 35.504C139.547 35.696 139.643 35.792 139.835 35.792C140.027 35.792 140.123 35.696 140.123 35.504C140.123 34.784 140.171 34.232 140.267 33.872L143.771 21.104H149.435V38H146.171V25.352C146.171 25.016 146.195 24.68 146.267 24.392C146.315 24.104 146.435 23.768 146.579 23.336C146.579 23.312 146.603 23.264 146.603 23.192C146.603 23.048 146.507 22.952 146.363 22.928H146.315C146.195 22.928 146.123 23 146.075 23.144L141.851 38H137.819L133.595 23.144C133.547 23 133.451 22.928 133.355 22.928C133.091 22.928 132.995 23.072 133.091 23.336C133.235 23.768 133.331 24.104 133.403 24.392C133.451 24.68 133.499 25.016 133.499 25.352V38H130.235ZM158.989 21.104C161.221 21.104 162.877 21.608 163.957 22.616C165.013 23.624 165.565 24.92 165.565 26.48C165.565 27.464 165.301 28.352 164.821 29.168C164.341 29.984 163.621 30.656 162.685 31.136C161.749 31.616 160.645 31.856 159.373 31.856H155.389V38H152.125V21.104H158.989ZM159.349 29.168C160.237 29.168 160.957 28.928 161.485 28.448C162.013 27.968 162.301 27.344 162.301 26.576C162.301 25.76 162.037 25.136 161.509 24.68C160.981 24.224 160.261 23.984 159.349 23.984H155.389V29.168H159.349ZM167.102 38V21.104H170.366V35.12H178.622V38H167.102ZM196.665 38H193.017L191.721 34.16H184.713L183.417 38H179.769L185.913 21.104H190.521L196.665 38ZM185.601 31.472H190.833L188.889 25.688C188.649 24.968 188.529 24.176 188.505 23.288C188.505 23.072 188.409 22.952 188.217 22.952C188.025 22.952 187.929 23.072 187.929 23.288C187.881 24.176 187.761 24.968 187.545 25.688L185.601 31.472ZM193.995 21.104H197.452L201.34 27.68C201.46 27.92 201.532 28.256 201.58 28.736C201.58 28.976 201.676 29.072 201.868 29.072C202.06 29.072 202.156 28.976 202.156 28.736C202.18 28.256 202.252 27.92 202.396 27.68L206.284 21.104H209.74L203.5 31.376V38H200.236V31.376L193.995 21.104Z" fill="black"/>
<path d="M43.6529 21.104V21.004H43.5249L43.5559 21.1283L43.6529 21.104ZM47.1089 21.104L47.2064 21.0818L47.1887 21.004H47.1089V21.104ZM49.9649 33.632L50.063 33.6124L50.0624 33.6098L49.9649 33.632ZM50.1809 35.648H50.2811L50.2808 35.6425L50.1809 35.648ZM50.9249 33.632L51.0231 33.6509L51.0233 33.6503L50.9249 33.632ZM53.2529 21.104V21.004H53.1698L53.1546 21.0857L53.2529 21.104ZM57.0929 21.104L57.1913 21.0857L57.1761 21.004H57.0929V21.104ZM59.4209 33.632L59.5198 33.6168L59.5193 33.6137L59.4209 33.632ZM60.3809 33.632L60.2834 33.6098L60.2833 33.6103L60.3809 33.632ZM63.2369 21.104V21.004H63.1572L63.1394 21.0818L63.2369 21.104ZM66.6929 21.104L66.79 21.1283L66.821 21.004H66.6929V21.104ZM62.4689 38V38.1H62.547L62.566 38.0243L62.4689 38ZM57.4769 38L57.3784 38.0169L57.3926 38.1H57.4769V38ZM55.6049 27.08L55.7035 27.0631L55.7032 27.0613L55.6049 27.08ZM54.7409 27.08L54.6427 27.0613L54.6424 27.0631L54.7409 27.08ZM52.8689 38V38.1H52.9533L52.9675 38.0169L52.8689 38ZM47.8769 38L47.7799 38.0243L47.7989 38.1H47.8769V38ZM43.6529 21.204H47.1089V21.004H43.6529V21.204ZM47.0114 21.1262L49.8674 33.6542L50.0624 33.6098L47.2064 21.0818L47.0114 21.1262ZM49.8669 33.6516C49.9615 34.1247 50.0332 34.7913 50.0811 35.6535L50.2808 35.6425C50.2327 34.7767 50.1604 34.0993 50.063 33.6124L49.8669 33.6516ZM50.0809 35.648C50.0809 35.7686 50.1075 35.8763 50.1801 35.9535C50.254 36.032 50.3575 36.06 50.4689 36.06V35.86C50.3884 35.86 50.3479 35.84 50.3258 35.8165C50.3024 35.7917 50.2809 35.7434 50.2809 35.648H50.0809ZM50.4689 36.06C50.5804 36.06 50.6839 36.032 50.7578 35.9535C50.8304 35.8763 50.8569 35.7686 50.8569 35.648H50.6569C50.6569 35.7434 50.6355 35.7917 50.6121 35.8165C50.59 35.84 50.5495 35.86 50.4689 35.86V36.06ZM50.8569 35.648C50.8569 34.9322 50.9047 34.2669 51.0231 33.6509L50.8267 33.6131C50.7052 34.2451 50.6569 34.9238 50.6569 35.648H50.8569ZM51.0233 33.6503L53.3513 21.1223L53.1546 21.0857L50.8266 33.6137L51.0233 33.6503ZM53.2529 21.204H57.0929V21.004H53.2529V21.204ZM56.9946 21.1223L59.3226 33.6503L59.5193 33.6137L57.1913 21.0857L56.9946 21.1223ZM59.3221 33.6472C59.4176 34.268 59.4889 34.9347 59.4889 35.648H59.6889C59.6889 34.9213 59.6163 34.244 59.5198 33.6168L59.3221 33.6472ZM59.4889 35.648C59.4889 35.7686 59.5155 35.8763 59.5881 35.9535C59.662 36.032 59.7655 36.06 59.8769 36.06V35.86C59.7964 35.86 59.7559 35.84 59.7338 35.8165C59.7104 35.7917 59.6889 35.7434 59.6889 35.648H59.4889ZM59.8769 36.06C59.9884 36.06 60.0919 36.032 60.1658 35.9535C60.2384 35.8763 60.2649 35.7686 60.2649 35.648H60.0649C60.0649 35.7434 60.0435 35.7917 60.0201 35.8165C59.998 35.84 59.9575 35.86 59.8769 35.86V36.06ZM60.2649 35.648C60.2649 34.9589 60.3362 34.2942 60.4786 33.6537L60.2833 33.6103C60.1377 34.2658 60.0649 34.9451 60.0649 35.648H60.2649ZM60.4784 33.6542L63.3344 21.1262L63.1394 21.0818L60.2834 33.6098L60.4784 33.6542ZM63.2369 21.204H66.6929V21.004H63.2369V21.204ZM66.5959 21.0797L62.3719 37.9757L62.566 38.0243L66.79 21.1283L66.5959 21.0797ZM62.4689 37.9H57.4769V38.1H62.4689V37.9ZM57.5755 37.9831L55.7035 27.0631L55.5064 27.0969L57.3784 38.0169L57.5755 37.9831ZM55.7032 27.0613C55.6089 26.5662 55.5609 25.9012 55.5609 25.04H55.3609C55.3609 25.9068 55.409 26.5858 55.5067 27.0987L55.7032 27.0613ZM55.5609 25.04C55.5609 24.9192 55.5343 24.8084 55.4654 24.7266C55.394 24.6417 55.2908 24.604 55.1729 24.604V24.804C55.2471 24.804 55.2879 24.8263 55.3124 24.8554C55.3395 24.8876 55.3609 24.9448 55.3609 25.04H55.5609ZM55.1729 24.604C55.0551 24.604 54.9519 24.6417 54.8804 24.7266C54.8115 24.8084 54.7849 24.9192 54.7849 25.04H54.9849C54.9849 24.9448 55.0063 24.8876 55.0334 24.8554C55.058 24.8263 55.0988 24.804 55.1729 24.804V24.604ZM54.7849 25.04C54.7849 25.9012 54.737 26.5662 54.6427 27.0613L54.8392 27.0987C54.9369 26.5858 54.9849 25.9068 54.9849 25.04H54.7849ZM54.6424 27.0631L52.7704 37.9831L52.9675 38.0169L54.8395 27.0969L54.6424 27.0631ZM52.8689 37.9H47.8769V38.1H52.8689V37.9ZM47.974 37.9757L43.75 21.0797L43.5559 21.1283L47.7799 38.0243L47.974 37.9757ZM79.748 21.104H79.848V21.004H79.748V21.104ZM79.748 23.984V24.084H79.848V23.984H79.748ZM71.108 23.984V23.884H71.008V23.984H71.108ZM71.108 28.208H71.008V28.308H71.108V28.208ZM78.212 28.208H78.312V28.108H78.212V28.208ZM78.212 30.896V30.996H78.312V30.896H78.212ZM71.108 30.896V30.796H71.008V30.896H71.108ZM71.108 35.12H71.008V35.22H71.108V35.12ZM79.748 35.12H79.848V35.02H79.748V35.12ZM79.748 38V38.1H79.848V38H79.748ZM67.844 38H67.744V38.1H67.844V38ZM67.844 21.104V21.004H67.744V21.104H67.844ZM79.648 21.104V23.984H79.848V21.104H79.648ZM79.748 23.884H71.108V24.084H79.748V23.884ZM71.008 23.984V28.208H71.208V23.984H71.008ZM71.108 28.308H78.212V28.108H71.108V28.308ZM78.112 28.208V30.896H78.312V28.208H78.112ZM78.212 30.796H71.108V30.996H78.212V30.796ZM71.008 30.896V35.12H71.208V30.896H71.008ZM71.108 35.22H79.748V35.02H71.108V35.22ZM79.648 35.12V38H79.848V35.12H79.648ZM79.748 37.9H67.844V38.1H79.748V37.9ZM67.944 38V21.104H67.744V38H67.944ZM67.844 21.204H79.748V21.004H67.844V21.204ZM82.0471 38H81.9471V38.1H82.0471V38ZM82.0471 21.104V21.004H81.9471V21.104H82.0471ZM85.3111 21.104H85.4111V21.004H85.3111V21.104ZM85.3111 35.12H85.2111V35.22H85.3111V35.12ZM93.5671 35.12H93.6671V35.02H93.5671V35.12ZM93.5671 38V38.1H93.6671V38H93.5671ZM82.1471 38V21.104H81.9471V38H82.1471ZM82.0471 21.204H85.3111V21.004H82.0471V21.204ZM85.2111 21.104V35.12H85.4111V21.104H85.2111ZM85.3111 35.22H93.5671V35.02H85.3111V35.22ZM93.4671 35.12V38H93.6671V35.12H93.4671ZM93.5671 37.9H82.0471V38.1H93.5671V37.9ZM95.3178 25.16L95.229 25.114L95.2287 25.1146L95.3178 25.16ZM98.1978 22.064L98.1454 21.9788L98.1454 21.9788L98.1978 22.064ZM106.862 21.92L106.811 22.0064L106.811 22.0064L106.862 21.92ZM110.462 27.44V27.54H110.572L110.561 27.4305L110.462 27.44ZM107.222 27.44L107.123 27.4564L107.137 27.54H107.222V27.44ZM106.574 25.712L106.66 25.6615L106.658 25.6574L106.574 25.712ZM105.062 24.344L105.013 24.4314L105.013 24.4314L105.062 24.344ZM99.9738 24.56L99.9189 24.4764L99.9172 24.4776L99.9738 24.56ZM98.1978 26.648L98.1074 26.6053L98.1074 26.6053L98.1978 26.648ZM98.1978 32.48L98.1074 32.5227L98.1074 32.5227L98.1978 32.48ZM99.9738 34.544L100.03 34.4616L100.029 34.4604L99.9738 34.544ZM105.062 34.784L105.013 34.6966L105.013 34.6966L105.062 34.784ZM106.574 33.392L106.659 33.445L106.659 33.444L106.574 33.392ZM107.222 31.664V31.564H107.137L107.123 31.6482L107.222 31.664ZM110.462 31.664L110.561 31.6733L110.572 31.564H110.462V31.664ZM109.454 34.712L109.367 34.6624L109.367 34.6624L109.454 34.712ZM106.862 37.208L106.811 37.1216L106.811 37.1216L106.862 37.208ZM98.1978 37.064L98.1454 37.1492L98.1454 37.1492L98.1978 37.064ZM95.3178 33.944L95.4069 33.8986L95.4066 33.898L95.3178 33.944ZM95.4066 25.206C96.0702 23.9262 97.0176 22.9077 98.2502 22.1492L98.1454 21.9788C96.882 22.7563 95.9094 23.8018 95.229 25.114L95.4066 25.206ZM98.2502 22.1492C99.4796 21.3926 100.973 21.012 102.686 21.012V20.812C100.943 20.812 99.412 21.1994 98.1454 21.9788L98.2502 22.1492ZM102.686 21.012C104.304 21.012 105.678 21.3451 106.811 22.0064L106.912 21.8336C105.742 21.1509 104.332 20.812 102.686 20.812V21.012ZM106.811 22.0064C107.951 22.6714 108.801 23.4758 109.367 24.4656L109.541 24.3664C108.954 23.3402 108.076 22.5126 106.912 21.8336L106.811 22.0064ZM109.367 24.4656C109.937 25.4631 110.268 26.4575 110.362 27.4495L110.561 27.4305C110.464 26.4065 110.123 25.3849 109.541 24.3664L109.367 24.4656ZM110.462 27.34H107.222V27.54H110.462V27.34ZM107.32 27.4236C107.222 26.834 107.001 26.2466 106.66 25.6616L106.487 25.7624C106.818 26.3294 107.029 26.894 107.123 27.4564L107.32 27.4236ZM106.658 25.6574C106.288 25.0901 105.771 24.6235 105.11 24.2566L105.013 24.4314C105.649 24.7845 106.14 25.2299 106.49 25.7666L106.658 25.6574ZM105.11 24.2566C104.445 23.8872 103.66 23.692 102.734 23.692V23.892C103.631 23.892 104.382 24.0808 105.013 24.4314L105.11 24.2566ZM102.734 23.692C101.661 23.692 100.705 23.9604 99.9189 24.4764L100.029 24.6436C100.778 24.1516 101.695 23.892 102.734 23.892V23.692ZM99.9172 24.4776C99.1348 25.0155 98.523 25.7251 98.1074 26.6053L98.2882 26.6907C98.6886 25.8429 99.2768 25.1605 100.03 24.6424L99.9172 24.4776ZM98.1074 26.6053C97.692 27.485 97.4978 28.484 97.4978 29.552H97.6978C97.6978 28.508 97.8876 27.539 98.2882 26.6907L98.1074 26.6053ZM97.4978 29.552C97.4978 30.6438 97.6919 31.6429 98.1074 32.5227L98.2882 32.4373C97.8877 31.5891 97.6978 30.6202 97.6978 29.552H97.4978ZM98.1074 32.5227C98.523 33.4027 99.135 34.1131 99.9189 34.6276L100.029 34.4604C99.2766 33.9669 98.6887 33.2853 98.2882 32.4373L98.1074 32.5227ZM99.9172 34.6264C100.706 35.1685 101.663 35.412 102.734 35.412V35.212C101.693 35.212 100.778 34.9755 100.03 34.4616L99.9172 34.6264ZM102.734 35.412C103.658 35.412 104.444 35.2417 105.11 34.8714L105.013 34.6966C104.384 35.0463 103.634 35.212 102.734 35.212V35.412ZM105.11 34.8714C105.771 34.5044 106.288 34.0373 106.659 33.445L106.489 33.339C106.139 33.8987 105.649 34.3436 105.013 34.6966L105.11 34.8714ZM106.659 33.444C107.002 32.8816 107.222 32.2934 107.321 31.6798L107.123 31.6482C107.029 32.2346 106.818 32.7984 106.488 33.34L106.659 33.444ZM107.222 31.764H110.462V31.564H107.222V31.764ZM110.362 31.6547C110.268 32.6707 109.937 33.6651 109.367 34.6624L109.541 34.7616C110.123 33.7429 110.464 32.7213 110.561 31.6733L110.362 31.6547ZM109.367 34.6624C108.801 35.6522 107.951 36.4566 106.811 37.1216L106.912 37.2944C108.076 36.6154 108.954 35.7878 109.541 34.7616L109.367 34.6624ZM106.811 37.1216C105.679 37.7824 104.305 38.092 102.686 38.092V38.292C104.33 38.292 105.741 37.9776 106.912 37.2944L106.811 37.1216ZM102.686 38.092C100.972 38.092 99.4788 37.7349 98.2502 36.9788L98.1454 37.1492C99.4128 37.9291 100.944 38.292 102.686 38.292V38.092ZM98.2502 36.9788C97.0177 36.2204 96.0705 35.2021 95.4069 33.8986L95.2287 33.9894C95.9091 35.3259 96.8819 36.3716 98.1454 37.1492L98.2502 36.9788ZM95.4066 33.898C94.7433 32.6187 94.4338 31.171 94.4338 29.552H94.2338C94.2338 31.197 94.5484 32.6773 95.229 33.99L95.4066 33.898ZM94.4338 29.552C94.4338 27.9573 94.7431 26.5092 95.4069 25.2054L95.2287 25.1146C94.5485 26.4508 94.2338 27.9307 94.2338 29.552H94.4338ZM124.543 22.064L124.595 21.9784L124.594 21.978L124.543 22.064ZM127.471 25.184L127.56 25.1386L127.56 25.138L127.471 25.184ZM127.471 33.92L127.382 33.874L127.382 33.8746L127.471 33.92ZM124.543 37.04L124.594 37.126L124.595 37.1256L124.543 37.04ZM115.567 37.04L115.619 36.9544L115.618 36.954L115.567 37.04ZM112.615 33.92L112.704 33.8746L112.704 33.874L112.615 33.92ZM112.615 25.184L112.526 25.138L112.526 25.1386L112.615 25.184ZM115.567 22.064L115.618 22.15L115.619 22.1496L115.567 22.064ZM122.815 34.544L122.76 34.4604L122.76 34.4608L122.815 34.544ZM124.615 32.48L124.705 32.5247L124.706 32.5227L124.615 32.48ZM124.615 26.648L124.706 26.6053L124.705 26.6033L124.615 26.648ZM122.815 24.56L122.872 24.4775L122.869 24.4756L122.815 24.56ZM117.295 24.56L117.24 24.4764L117.24 24.4768L117.295 24.56ZM115.495 26.648L115.585 26.6927L115.586 26.6907L115.495 26.648ZM115.495 32.48L115.586 32.4373L115.585 32.4353L115.495 32.48ZM117.295 34.544L117.352 34.4615L117.349 34.4596L117.295 34.544ZM124.492 22.1496C125.748 22.9081 126.719 23.9504 127.382 25.23L127.56 25.138C126.88 23.8256 125.883 22.7559 124.595 21.9784L124.492 22.1496ZM127.382 25.2294C128.047 26.5352 128.403 27.9836 128.403 29.552H128.603C128.603 27.9524 128.24 26.4728 127.56 25.1386L127.382 25.2294ZM128.403 29.552C128.403 31.1447 128.047 32.5928 127.382 33.874L127.56 33.966C128.24 32.6552 128.603 31.1753 128.603 29.552H128.403ZM127.382 33.8746C126.719 35.1772 125.748 36.1956 124.492 36.9544L124.595 37.1256C125.882 36.3484 126.879 35.3028 127.56 33.9654L127.382 33.8746ZM124.492 36.954C123.214 37.7117 121.744 38.092 120.055 38.092V38.292C121.775 38.292 123.281 37.9043 124.594 37.126L124.492 36.954ZM120.055 38.092C118.343 38.092 116.873 37.7116 115.619 36.9544L115.516 37.1256C116.805 37.9044 118.312 38.292 120.055 38.292V38.092ZM115.618 36.954C114.338 36.1953 113.367 35.1771 112.704 33.8746L112.526 33.9654C113.207 35.3029 114.205 36.3487 115.516 37.126L115.618 36.954ZM112.704 33.874C112.04 32.5937 111.707 31.1458 111.707 29.552H111.507C111.507 31.1742 111.846 32.6543 112.526 33.966L112.704 33.874ZM111.707 29.552C111.707 27.9825 112.04 26.5342 112.704 25.2294L112.526 25.1386C111.846 26.4738 111.507 27.9535 111.507 29.552H111.707ZM112.704 25.23C113.367 23.9505 114.338 22.9084 115.618 22.15L115.516 21.978C114.204 22.7556 113.207 23.8255 112.526 25.138L112.704 25.23ZM115.619 22.1496C116.873 21.3924 118.343 21.012 120.055 21.012V20.812C118.312 20.812 116.805 21.1996 115.516 21.9784L115.619 22.1496ZM120.055 21.012C121.744 21.012 123.214 21.3923 124.492 22.15L124.594 21.978C123.281 21.1997 121.775 20.812 120.055 20.812V21.012ZM122.87 34.6276C123.654 34.1131 124.266 33.4031 124.705 32.5247L124.526 32.4353C124.101 33.2849 123.512 33.9669 122.76 34.4604L122.87 34.6276ZM124.706 32.5227C125.12 31.6442 125.339 30.6455 125.339 29.552H125.139C125.139 30.6185 124.926 31.5878 124.525 32.4373L124.706 32.5227ZM125.339 29.552C125.339 28.4823 125.12 27.4836 124.706 26.6053L124.525 26.6907C124.926 27.5404 125.139 28.5097 125.139 29.552H125.339ZM124.705 26.6033C124.265 25.7247 123.654 25.0155 122.872 24.4776L122.759 24.6424C123.512 25.1605 124.101 25.8433 124.526 26.6927L124.705 26.6033ZM122.869 24.4756C122.06 23.9607 121.129 23.692 120.055 23.692V23.892C121.094 23.892 121.987 24.1513 122.762 24.6444L122.869 24.4756ZM120.055 23.692C118.982 23.692 118.027 23.9604 117.24 24.4764L117.35 24.6436C118.1 24.1516 119.016 23.892 120.055 23.892V23.692ZM117.24 24.4768C116.433 25.0149 115.821 25.7249 115.405 26.6053L115.586 26.6907C115.986 25.8431 116.574 25.1611 117.351 24.6432L117.24 24.4768ZM115.406 26.6033C114.965 27.4841 114.771 28.4841 114.771 29.552H114.971C114.971 28.5079 115.161 27.5399 115.585 26.6927L115.406 26.6033ZM114.771 29.552C114.771 30.6437 114.965 31.6438 115.406 32.5247L115.585 32.4353C115.161 31.5882 114.971 30.6203 114.971 29.552H114.771ZM115.405 32.5227C115.82 33.4029 116.433 34.1137 117.242 34.6284L117.349 34.4596C116.574 33.9663 115.986 33.2851 115.586 32.4373L115.405 32.5227ZM117.239 34.6264C118.027 35.1685 118.984 35.412 120.055 35.412V35.212C119.014 35.212 118.099 34.9755 117.352 34.4616L117.239 34.6264ZM120.055 35.412C121.127 35.412 122.059 35.1681 122.871 34.6272L122.76 34.4608C121.987 34.9759 121.095 35.212 120.055 35.212V35.412ZM130.235 38H130.135V38.1H130.235V38ZM130.235 21.104V21.004H130.135V21.104H130.235ZM135.899 21.104L135.995 21.0775L135.975 21.004H135.899V21.104ZM139.403 33.872L139.499 33.8462L139.499 33.8455L139.403 33.872ZM140.267 33.872L140.17 33.8455L140.17 33.8462L140.267 33.872ZM143.771 21.104V21.004H143.694L143.674 21.0775L143.771 21.104ZM149.435 21.104H149.535V21.004H149.435V21.104ZM149.435 38V38.1H149.535V38H149.435ZM146.171 38H146.071V38.1H146.171V38ZM146.267 24.392L146.364 24.4163L146.365 24.4084L146.267 24.392ZM146.579 23.336L146.673 23.3676L146.679 23.3522V23.336H146.579ZM146.363 22.928L146.379 22.8294L146.371 22.828H146.363V22.928ZM146.075 23.144L145.98 23.1123L145.978 23.1167L146.075 23.144ZM141.851 38V38.1H141.926L141.947 38.0273L141.851 38ZM137.819 38L137.722 38.0273L137.743 38.1H137.819V38ZM133.595 23.144L133.691 23.1166L133.689 23.1124L133.595 23.144ZM133.091 23.336L133.186 23.3044L133.185 23.3018L133.091 23.336ZM133.403 24.392L133.502 24.3755L133.5 24.3677L133.403 24.392ZM133.499 38V38.1H133.599V38H133.499ZM130.335 38V21.104H130.135V38H130.335ZM130.235 21.204H135.899V21.004H130.235V21.204ZM135.802 21.1305L139.306 33.8985L139.499 33.8455L135.995 21.0775L135.802 21.1305ZM139.306 33.8978C139.399 34.2447 139.447 34.786 139.447 35.504H139.647C139.647 34.782 139.599 34.2193 139.499 33.8462L139.306 33.8978ZM139.447 35.504C139.447 35.6154 139.475 35.7173 139.548 35.7907C139.621 35.8641 139.723 35.892 139.835 35.892V35.692C139.754 35.692 139.712 35.6719 139.689 35.6493C139.667 35.6267 139.647 35.5846 139.647 35.504H139.447ZM139.835 35.892C139.946 35.892 140.048 35.8641 140.121 35.7907C140.195 35.7173 140.223 35.6154 140.223 35.504H140.023C140.023 35.5846 140.003 35.6267 139.98 35.6493C139.957 35.6719 139.915 35.692 139.835 35.692V35.892ZM140.223 35.504C140.223 34.786 140.271 34.2447 140.363 33.8978L140.17 33.8462C140.071 34.2193 140.023 34.782 140.023 35.504H140.223ZM140.363 33.8985L143.867 21.1305L143.674 21.0775L140.17 33.8455L140.363 33.8985ZM143.771 21.204H149.435V21.004H143.771V21.204ZM149.335 21.104V38H149.535V21.104H149.335ZM149.435 37.9H146.171V38.1H149.435V37.9ZM146.271 38V25.352H146.071V38H146.271ZM146.271 25.352C146.271 25.0196 146.294 24.6929 146.364 24.4163L146.17 24.3677C146.095 24.6671 146.071 25.0124 146.071 25.352H146.271ZM146.365 24.4084C146.412 24.1304 146.528 23.8046 146.673 23.3676L146.484 23.3044C146.341 23.7314 146.218 24.0776 146.168 24.3756L146.365 24.4084ZM146.679 23.336C146.679 23.3436 146.677 23.3468 146.679 23.3378C146.68 23.3343 146.681 23.3303 146.683 23.3247C146.684 23.3195 146.686 23.3131 146.688 23.3063C146.695 23.2781 146.703 23.2393 146.703 23.192H146.503C146.503 23.2167 146.499 23.2379 146.494 23.2577C146.492 23.2629 146.491 23.2678 146.49 23.273C146.488 23.2779 146.487 23.2837 146.485 23.2892C146.483 23.2982 146.479 23.3164 146.479 23.336H146.679ZM146.703 23.192C146.703 23.0965 146.67 23.0116 146.61 22.9468C146.55 22.8828 146.469 22.8443 146.379 22.8294L146.346 23.0266C146.401 23.0357 146.439 23.0572 146.464 23.0832C146.487 23.1084 146.503 23.1435 146.503 23.192H146.703ZM146.363 22.828H146.315V23.028H146.363V22.828ZM146.315 22.828C146.232 22.828 146.159 22.8537 146.1 22.9085C146.043 22.9606 146.006 23.0325 145.98 23.1124L146.169 23.1756C146.191 23.1115 146.214 23.0754 146.235 23.0555C146.254 23.0383 146.277 23.028 146.315 23.028V22.828ZM145.978 23.1167L141.754 37.9727L141.947 38.0273L146.171 23.1713L145.978 23.1167ZM141.851 37.9H137.819V38.1H141.851V37.9ZM137.915 37.9727L133.691 23.1167L133.498 23.1713L137.722 38.0273L137.915 37.9727ZM133.689 23.1124C133.633 22.9414 133.507 22.828 133.355 22.828V23.028C133.395 23.028 133.461 23.0586 133.5 23.1756L133.689 23.1124ZM133.355 22.828C133.209 22.828 133.076 22.8675 133.004 22.9784C132.933 23.0871 132.945 23.2277 132.997 23.3702L133.185 23.3018C133.14 23.1803 133.152 23.1169 133.171 23.0876C133.189 23.0605 133.236 23.028 133.355 23.028V22.828ZM132.996 23.3676C133.139 23.7974 133.234 24.131 133.306 24.4163L133.5 24.3677C133.427 24.077 133.33 23.7386 133.185 23.3044L132.996 23.3676ZM133.304 24.4084C133.352 24.6953 133.399 25.0246 133.399 25.352H133.599C133.599 25.0074 133.549 24.6647 133.501 24.3756L133.304 24.4084ZM133.399 25.352V38H133.599V25.352H133.399ZM133.499 37.9H130.235V38.1H133.499V37.9ZM163.957 22.616L164.026 22.5437L164.025 22.5429L163.957 22.616ZM164.821 29.168L164.907 29.2187L164.907 29.2187L164.821 29.168ZM155.389 31.856V31.756H155.289V31.856H155.389ZM155.389 38V38.1H155.489V38H155.389ZM152.125 38H152.025V38.1H152.125V38ZM152.125 21.104V21.004H152.025V21.104H152.125ZM161.485 28.448L161.418 28.374L161.418 28.374L161.485 28.448ZM161.509 24.68L161.575 24.6043L161.575 24.6043L161.509 24.68ZM155.389 23.984V23.884H155.289V23.984H155.389ZM155.389 29.168H155.289V29.268H155.389V29.168ZM158.989 21.204C161.209 21.204 162.835 21.7054 163.889 22.6891L164.025 22.5429C162.919 21.5106 161.234 21.004 158.989 21.004V21.204ZM163.888 22.6883C164.924 23.6767 165.465 24.9462 165.465 26.48H165.665C165.665 24.8938 165.103 23.5713 164.026 22.5437L163.888 22.6883ZM165.465 26.48C165.465 27.445 165.207 28.3156 164.735 29.1173L164.907 29.2187C165.396 28.3884 165.665 27.483 165.665 26.48H165.465ZM164.735 29.1173C164.265 29.9157 163.56 30.575 162.64 31.047L162.731 31.225C163.682 30.737 164.417 30.0523 164.907 29.2187L164.735 29.1173ZM162.64 31.047C161.72 31.5184 160.633 31.756 159.373 31.756V31.956C160.658 31.956 161.778 31.7136 162.731 31.225L162.64 31.047ZM159.373 31.756H155.389V31.956H159.373V31.756ZM155.289 31.856V38H155.489V31.856H155.289ZM155.389 37.9H152.125V38.1H155.389V37.9ZM152.225 38V21.104H152.025V38H152.225ZM152.125 21.204H158.989V21.004H152.125V21.204ZM159.349 29.268C160.255 29.268 161.002 29.0228 161.553 28.522L161.418 28.374C160.913 28.8332 160.219 29.068 159.349 29.068V29.268ZM161.553 28.522C162.101 28.023 162.401 27.3722 162.401 26.576H162.201C162.201 27.3158 161.925 27.913 161.418 28.374L161.553 28.522ZM162.401 26.576C162.401 25.7359 162.128 25.0823 161.575 24.6043L161.444 24.7557C161.946 25.1897 162.201 25.7841 162.201 26.576H162.401ZM161.575 24.6043C161.024 24.129 160.279 23.884 159.349 23.884V24.084C160.244 24.084 160.938 24.319 161.444 24.7557L161.575 24.6043ZM159.349 23.884H155.389V24.084H159.349V23.884ZM155.289 23.984V29.168H155.489V23.984H155.289ZM155.389 29.268H159.349V29.068H155.389V29.268ZM167.102 38H167.002V38.1H167.102V38ZM167.102 21.104V21.004H167.002V21.104H167.102ZM170.366 21.104H170.466V21.004H170.366V21.104ZM170.366 35.12H170.266V35.22H170.366V35.12ZM178.622 35.12H178.722V35.02H178.622V35.12ZM178.622 38V38.1H178.722V38H178.622ZM167.202 38V21.104H167.002V38H167.202ZM167.102 21.204H170.366V21.004H167.102V21.204ZM170.266 21.104V35.12H170.466V21.104H170.266ZM170.366 35.22H178.622V35.02H170.366V35.22ZM178.522 35.12V38H178.722V35.12H178.522ZM178.622 37.9H167.102V38.1H178.622V37.9ZM196.665 38V38.1H196.808L196.759 37.9658L196.665 38ZM193.017 38L192.922 38.032L192.945 38.1H193.017V38ZM191.721 34.16L191.816 34.128L191.793 34.06H191.721V34.16ZM184.713 34.16V34.06H184.641L184.618 34.128L184.713 34.16ZM183.417 38V38.1H183.489L183.512 38.032L183.417 38ZM179.769 38L179.675 37.9658L179.626 38.1H179.769V38ZM185.913 21.104V21.004H185.843L185.819 21.0698L185.913 21.104ZM190.521 21.104L190.615 21.0698L190.591 21.004H190.521V21.104ZM185.601 31.472L185.506 31.4401L185.462 31.572H185.601V31.472ZM190.833 31.472V31.572H190.972L190.928 31.4401L190.833 31.472ZM188.889 25.688L188.794 25.7196L188.794 25.7199L188.889 25.688ZM188.505 23.288H188.405L188.405 23.2907L188.505 23.288ZM187.929 23.288L188.029 23.2934V23.288H187.929ZM187.545 25.688L187.64 25.7199L187.641 25.7167L187.545 25.688ZM196.665 37.9H193.017V38.1H196.665V37.9ZM193.112 37.968L191.816 34.128L191.626 34.192L192.922 38.032L193.112 37.968ZM191.721 34.06H184.713V34.26H191.721V34.06ZM184.618 34.128L183.322 37.968L183.512 38.032L184.808 34.192L184.618 34.128ZM183.417 37.9H179.769V38.1H183.417V37.9ZM179.863 38.0342L186.007 21.1382L185.819 21.0698L179.675 37.9658L179.863 38.0342ZM185.913 21.204H190.521V21.004H185.913V21.204ZM190.427 21.1382L196.571 38.0342L196.759 37.9658L190.615 21.0698L190.427 21.1382ZM185.601 31.572H190.833V31.372H185.601V31.572ZM190.928 31.4401L188.984 25.6561L188.794 25.7199L190.738 31.5039L190.928 31.4401ZM188.984 25.6564C188.748 24.9479 188.629 24.166 188.605 23.2853L188.405 23.2907C188.429 24.186 188.55 24.9881 188.794 25.7196L188.984 25.6564ZM188.605 23.288C188.605 23.1672 188.578 23.0564 188.509 22.9746C188.438 22.8897 188.335 22.852 188.217 22.852V23.052C188.291 23.052 188.332 23.0743 188.356 23.1034C188.384 23.1356 188.405 23.1928 188.405 23.288H188.605ZM188.217 22.852C188.099 22.852 187.996 22.8897 187.924 22.9746C187.856 23.0564 187.829 23.1672 187.829 23.288H188.029C188.029 23.1928 188.05 23.1356 188.077 23.1034C188.102 23.0743 188.143 23.052 188.217 23.052V22.852ZM187.829 23.2826C187.781 24.165 187.662 24.9488 187.449 25.6593L187.641 25.7167C187.86 24.9872 187.98 24.187 188.029 23.2934L187.829 23.2826ZM187.45 25.6561L185.506 31.4401L185.696 31.5039L187.64 25.7199L187.45 25.6561ZM193.995 21.104V21.004H193.818L193.91 21.1559L193.995 21.104ZM197.452 21.104L197.538 21.0531L197.509 21.004H197.452V21.104ZM201.34 27.68L201.429 27.6352L201.426 27.6291L201.34 27.68ZM201.58 28.736H201.68L201.679 28.726L201.58 28.736ZM202.156 28.736L202.056 28.731V28.736H202.156ZM202.396 27.68L202.481 27.7315L202.482 27.7309L202.396 27.68ZM206.284 21.104V21.004H206.226L206.197 21.0531L206.284 21.104ZM209.74 21.104L209.825 21.1559L209.917 21.004H209.74V21.104ZM203.5 31.376L203.414 31.3241L203.4 31.348V31.376H203.5ZM203.5 38V38.1H203.6V38H203.5ZM200.236 38H200.136V38.1H200.236V38ZM200.236 31.376H200.336V31.348L200.321 31.3241L200.236 31.376ZM193.995 21.204H197.452V21.004H193.995V21.204ZM197.365 21.1549L201.253 27.7309L201.426 27.6291L197.538 21.0531L197.365 21.1549ZM201.25 27.7247C201.362 27.9477 201.432 28.2684 201.48 28.746L201.679 28.726C201.631 28.2436 201.557 27.8923 201.429 27.6353L201.25 27.7247ZM201.48 28.736C201.48 28.8662 201.505 28.9797 201.577 29.0604C201.651 29.1439 201.756 29.172 201.868 29.172V28.972C201.787 28.972 201.748 28.9521 201.726 28.9276C201.702 28.9003 201.68 28.8458 201.68 28.736H201.48ZM201.868 29.172C201.979 29.172 202.084 29.1439 202.158 29.0604C202.23 28.9797 202.256 28.8662 202.256 28.736H202.056C202.056 28.8458 202.033 28.9003 202.009 28.9276C201.987 28.9521 201.948 28.972 201.868 28.972V29.172ZM202.255 28.741C202.279 28.2656 202.35 27.9499 202.481 27.7314L202.31 27.6286C202.153 27.8901 202.08 28.2464 202.056 28.731L202.255 28.741ZM202.482 27.7309L206.37 21.1549L206.197 21.0531L202.309 27.6291L202.482 27.7309ZM206.284 21.204H209.74V21.004H206.284V21.204ZM209.654 21.0521L203.414 31.3241L203.585 31.4279L209.825 21.1559L209.654 21.0521ZM203.4 31.376V38H203.6V31.376H203.4ZM203.5 37.9H200.236V38.1H203.5V37.9ZM200.336 38V31.376H200.136V38H200.336ZM200.321 31.3241L194.081 21.0521L193.91 21.1559L200.15 31.4279L200.321 31.3241Z" fill="black" mask="url(#path-1-outside-1_168_1180)"/>
<path d="M36.9973 29.9705C36.9973 34.7574 36.9991 39.5443 36.9964 44.3314C36.9955 45.8589 36.1191 47.1319 34.6357 47.6305C34.0685 47.8213 33.4367 47.9062 32.8339 47.9098C23.9462 47.9559 15.0578 47.9867 6.17018 48C5.35501 48.0009 4.51702 47.946 3.7283 47.764C2.05053 47.3758 1.00831 46.0463 1.00557 44.3703C0.995545 37.0594 1.00193 29.7486 1.00284 22.4378C1.00284 20.2039 1.00284 17.97 1.01287 15.7361C1.0156 15.0183 1.13688 14.319 1.53808 13.6958C2.27393 12.5527 3.37177 12.0135 4.73223 12.0091C8.98226 11.994 13.2323 12.002 17.4823 12.0029C22.7199 12.0029 27.9584 12.0011 33.1959 12.01C34.9111 12.0126 36.1738 12.8392 36.7993 14.3773C36.9316 14.7036 36.9818 15.0819 36.9827 15.4364C36.9946 20.2817 36.9908 25.1261 36.9908 29.9714H37L36.9973 29.9705ZM14.2216 19.1731C14.3876 19.4746 14.4924 19.6337 14.6091 19.8273C15.9559 22.0506 16.6379 24.4304 16.3607 27.0205C16.296 27.6226 16.1638 28.2263 15.9769 28.8036C15.7963 29.3614 15.3222 29.5612 14.766 29.4259C14.2471 29.2995 13.9718 28.9344 14.0383 28.3678C14.0721 28.0796 14.1286 27.764 14.1815 27.4784C14.5216 25.6539 14.3091 23.8761 13.5031 22.2106C13.0116 21.1966 12.2812 20.3064 11.6676 19.3499C11.6147 19.2668 11.5098 19.2607 11.394 19.2615C10.7065 19.2686 9.99804 19.2421 9.31233 19.2235C8.88287 19.212 8.75885 19.3517 8.73881 19.7584C8.46707 25.2207 8.28653 30.6857 8.35037 36.1551C8.36402 37.315 8.42057 38.4746 8.49898 39.6318C8.54823 40.3648 9.00415 40.3374 9.75367 40.3896C10.9317 40.4717 11.8554 40.6184 13.0362 40.6546C14.6957 40.7059 16.2997 40.6202 17.9601 40.6546C18.3057 40.6618 18.437 40.8306 18.416 40.4778C18.3805 39.8856 18.3622 39.2137 18.3248 38.6215C18.2829 37.9708 18.1808 37.2389 18.1425 36.5882C18.1115 36.0552 18.5574 35.6052 19.0543 35.5273C19.6096 35.4398 20.1612 35.7688 20.3309 36.3229C20.4157 36.5997 20.3901 36.9667 20.4038 37.2531C20.453 38.3095 20.4895 39.3676 20.4977 40.4249C20.4996 40.7289 20.66 40.7572 20.9701 40.7431C21.209 40.7316 21.5518 40.3117 21.7907 40.3012C24.1212 40.1986 26.2067 40.3099 28.5382 40.2127C28.9349 40.1959 29.0388 40.2366 29.0854 39.859C29.1245 39.5427 29.2348 39.2041 29.2676 38.8866C29.8211 33.503 29.8412 28.1901 29.5412 22.7976C29.4782 21.659 29.2631 20.569 29.0854 19.4383C29.0642 19.3048 28.9286 19.0768 28.8282 19.0812C27.764 19.1219 26.5267 18.7506 25.9687 20.1146C25.9478 20.1659 25.8902 20.2021 25.8566 20.2499C24.3512 22.3635 23.4858 24.6301 24.0575 27.2495C24.1469 27.6588 24.1788 28.0831 24.2024 28.5021C24.2344 29.0679 23.8287 29.5117 23.2487 29.517C22.563 29.5241 22.2375 29.2686 22.0633 28.4562C21.6074 26.3284 21.7013 24.1422 22.5192 22.0913C22.9314 21.0578 23.7045 18.5552 23.9781 19.174H14.2216V19.1731Z" fill="url(#paint0_linear_168_1180)"/>
<path d="M14.1998 19.0573C17.5954 18.9963 20.7868 18.9963 23.9554 19.0573C23.4795 20.0801 22.9615 21.0746 22.5494 22.1081C21.7315 24.159 21.7151 26.2762 22.171 28.404C22.3451 29.2164 22.564 29.3747 23.2497 29.3676C23.8297 29.3623 24.2099 28.9928 24.178 28.427C24.1541 28.008 24.1224 27.5836 24.0328 27.1743C23.4612 24.555 24.3265 22.2893 25.8319 20.1747C25.8657 20.127 25.9231 20.0907 25.9442 20.0395C26.5013 18.6754 27.7395 19.0458 28.8037 19.006C28.9039 19.0025 29.0881 19.2208 29.1091 19.3552C29.2868 20.4859 29.5168 21.6165 29.5795 22.7543C29.8797 28.1468 29.917 33.5392 29.3635 38.9228C29.3307 39.2403 29.276 39.5551 29.2369 39.8714C29.1903 40.249 28.9797 40.4249 28.583 40.4416C26.2513 40.5388 23.9208 40.6459 21.5902 40.7476C21.3513 40.7581 21.1114 40.7554 20.8725 40.7669C20.5634 40.7811 20.4759 40.6537 20.4741 40.3498C20.4659 39.2925 20.4294 38.2343 20.3802 37.1779C20.3665 36.8915 20.2935 36.6024 20.2087 36.3265C20.0391 35.7724 19.6087 35.5141 19.0525 35.6007C18.5556 35.6785 18.1899 36.0975 18.2209 36.6307C18.2592 37.2812 18.365 37.9283 18.4069 38.579C18.4443 39.1712 18.4179 39.7672 18.4535 40.3585C18.4744 40.7113 18.3376 40.8103 17.9911 40.8031C16.3307 40.7687 14.6694 40.7723 13.0098 40.721C11.829 40.6848 10.6509 40.591 9.47195 40.5088C8.72333 40.4566 8.52456 40.2897 8.47531 39.5575C8.39782 38.4004 8.34038 37.2407 8.3267 36.0808C8.26287 30.6114 8.44433 25.1464 8.71514 19.6841C8.73519 19.2774 8.85921 19.1377 9.28866 19.1492C9.97437 19.1678 10.6628 19.1121 11.3503 19.105C11.4661 19.1042 11.6366 19.1563 11.6895 19.2394C12.3032 20.1959 13.0928 21.1639 13.5834 22.1788C14.3894 23.8434 14.5618 25.5699 14.2217 27.3945C14.1688 27.68 14.073 27.9903 14.0393 28.2785C13.9727 28.8451 14.2499 29.1245 14.7688 29.2509C15.325 29.3862 15.7727 29.2871 15.9532 28.7293C16.1401 28.1521 16.2724 27.5474 16.3371 26.9463C16.6143 24.357 15.6587 21.5741 14.3128 19.3499C14.1961 19.1572 14.3156 19.3588 14.1497 19.0573H14.1998Z" fill="#FFDF88"/>
<defs>
<linearGradient id="paint0_linear_168_1180" x1="0.99828" y1="29.9997" x2="36.9973" y2="29.9997" gradientUnits="userSpaceOnUse">
<stop offset="0.19" stop-color="#89111A"/>
<stop offset="0.28" stop-color="#8E111A"/>
<stop offset="0.39" stop-color="#9F121B"/>
<stop offset="0.53" stop-color="#BB141D"/>
<stop offset="0.67" stop-color="#E21620"/>
<stop offset="0.73" stop-color="#F41822"/>
</linearGradient>
</defs>
</svg>
